<svg width="22" height="20" viewBox="0 0 22 20" fill="none" xmlns="http://www.w3.org/2000/svg">
<path d="M9.70076 8.7L3.50078 0.6C3.10078 0.2 2.60078 0 2.10078 0C1.60078 0 1.10078 0.2 0.70078 0.6C0.000781715 1.4 0.000781715 2.6 0.70078 3.4L5.60077 10L0.70078 16.6C0.000781715 17.4 0.000781715 18.6 0.70078 19.4C1.10078 19.8 1.60078 20 2.10078 20C2.60078 20 3.10078 19.8 3.50078 19.4L9.70076 11.3C10.4008 10.7 10.4008 9.5 9.70076 8.7Z" fill="#17696A"/>
<path d="M12.3436 8.7L18.5436 0.6C18.9436 0.2 19.4436 0 19.9436 0C20.4436 0 20.9436 0.2 21.3436 0.6C22.0436 1.4 22.0436 2.6 21.3436 3.4L16.4436 10L21.3436 16.6C22.0436 17.4 22.0436 18.6 21.3436 19.4C20.9436 19.8 20.4436 20 19.9436 20C19.4436 20 18.9436 19.8 18.5436 19.4L12.3436 11.3C11.6436 10.7 11.6436 9.5 12.3436 8.7Z" fill="#17696A"/>
</svg>
